<svg width="548" height="437" viewBox="0 0 548 437" fill="none" xmlns="http://www.w3.org/2000/svg">
<g filter="url(#filter0_df_4446_27686)">
<path d="M51.9453 341.324L348.955 160.926" stroke="url(#paint0_linear_4446_27686)" stroke-width="10" stroke-linecap="round" shape-rendering="crispEdges"/>
</g>
<g filter="url(#filter1_df_4446_27686)">
<path d="M216.619 297.156L480.093 125" stroke="url(#paint1_linear_4446_27686)" stroke-width="10" stroke-linecap="round" shape-rendering="crispEdges"/>
</g>
<g opacity="0.2" filter="url(#filter2_f_4446_27686)">
<ellipse cx="342.367" cy="160.179" rx="50.8983" ry="50.1498" fill="#1F2065"/>
</g>
<g opacity="0.2" filter="url(#filter3_f_4446_27686)">
<circle cx="331.888" cy="234.279" r="50.8983" fill="#F6C03A"/>
</g>
<g opacity="0.3" filter="url(#filter4_f_4446_27686)">
<circle cx="216.618" cy="298.652" r="50.8983" fill="#EFD8D8"/>
</g>
<g opacity="0.2" filter="url(#filter5_f_4446_27686)">
<circle cx="240.567" cy="211.826" r="50.8983" fill="#9A0000"/>
</g>
<g opacity="0.7" filter="url(#filter6_f_4446_27686)">
<circle cx="85.6288" cy="311.375" r="60.6288" fill="#FBE6B0" fill-opacity="0.6"/>
</g>
<g opacity="0.7" filter="url(#filter7_f_4446_27686)">
<circle cx="464.371" cy="124.25" r="60.6288" fill="#FBF2D6"/>
</g>
<path d="M142.232 384.875C141.761 384.367 141.274 383.844 141.09 383.384C140.92 382.962 140.91 382.264 140.9 381.587C140.881 380.329 140.861 378.903 139.9 377.912C138.939 376.92 137.556 376.9 136.336 376.88C135.68 376.87 135.002 376.86 134.594 376.685C134.149 376.495 133.64 375.992 133.147 375.506C132.285 374.652 131.305 373.684 130 373.684C128.695 373.684 127.716 374.652 126.852 375.506C126.36 375.992 125.852 376.495 125.406 376.685C125 376.86 124.32 376.87 123.664 376.88C122.444 376.9 121.061 376.92 120.1 377.912C119.139 378.903 119.125 380.329 119.1 381.587C119.09 382.264 119.08 382.962 118.91 383.384C118.726 383.843 118.239 384.367 117.767 384.875C116.939 385.765 116 386.775 116 388.121C116 389.467 116.939 390.476 117.767 391.367C118.239 391.875 118.726 392.398 118.91 392.858C119.08 393.28 119.09 393.979 119.1 394.655C119.119 395.913 119.139 397.339 120.1 398.33C121.061 399.322 122.444 399.342 123.664 399.362C124.32 399.372 124.997 399.382 125.406 399.558C125.851 399.747 126.36 400.25 126.852 400.736C127.715 401.591 128.695 402.559 130 402.559C131.305 402.559 132.284 401.591 133.147 400.736C133.64 400.25 134.147 399.747 134.594 399.558C135.002 399.382 135.68 399.372 136.336 399.362C137.556 399.342 138.939 399.322 139.9 398.33C140.861 397.339 140.881 395.913 140.9 394.655C140.91 393.979 140.92 393.28 141.09 392.858C141.274 392.399 141.761 391.875 142.232 391.367C143.061 390.477 144 389.467 144 388.121C144 386.775 143.061 385.766 142.232 384.875ZM135.707 385.757L128.707 392.976C128.615 393.072 128.504 393.148 128.383 393.2C128.262 393.251 128.131 393.278 128 393.278C127.869 393.278 127.738 393.251 127.617 393.2C127.496 393.148 127.385 393.072 127.292 392.976L124.292 389.882C124.2 389.786 124.126 389.672 124.076 389.547C124.025 389.422 123.999 389.288 123.999 389.152C123.999 389.017 124.025 388.883 124.076 388.757C124.126 388.632 124.2 388.519 124.292 388.423C124.48 388.229 124.735 388.121 125 388.121C125.131 388.121 125.262 388.147 125.383 388.199C125.504 388.251 125.615 388.327 125.707 388.423L128 390.788L134.292 384.298C134.385 384.202 134.496 384.126 134.617 384.074C134.738 384.022 134.869 383.996 135 383.996C135.131 383.996 135.262 384.022 135.383 384.074C135.504 384.126 135.615 384.202 135.707 384.298C135.8 384.394 135.874 384.507 135.924 384.632C135.975 384.758 136.001 384.892 136.001 385.027C136.001 385.163 135.975 385.297 135.924 385.422C135.874 385.547 135.8 385.661 135.707 385.757Z" fill="#27AE60"/>
<path d="M459.481 222.086C458.776 221.349 458.046 220.589 457.771 219.921C457.516 219.309 457.501 218.295 457.486 217.313C457.458 215.486 457.428 213.417 455.989 211.978C454.55 210.539 452.481 210.509 450.654 210.481C449.672 210.466 448.658 210.451 448.046 210.196C447.38 209.921 446.618 209.191 445.881 208.486C444.59 207.245 443.123 205.84 441.169 205.84C439.215 205.84 437.75 207.245 436.457 208.486C435.72 209.191 434.96 209.921 434.292 210.196C433.684 210.451 432.666 210.466 431.684 210.481C429.857 210.509 427.788 210.539 426.349 211.978C424.91 213.417 424.889 215.486 424.852 217.313C424.837 218.295 424.822 219.309 424.567 219.921C424.292 220.587 423.562 221.349 422.857 222.086C421.616 223.377 420.211 224.844 420.211 226.798C420.211 228.752 421.616 230.217 422.857 231.51C423.562 232.247 424.292 233.007 424.567 233.675C424.822 234.287 424.837 235.301 424.852 236.283C424.88 238.11 424.91 240.179 426.349 241.618C427.788 243.057 429.857 243.087 431.684 243.115C432.666 243.13 433.68 243.145 434.292 243.4C434.958 243.675 435.72 244.405 436.457 245.11C437.748 246.351 439.215 247.756 441.169 247.756C443.123 247.756 444.588 246.351 445.881 245.11C446.618 244.405 447.378 243.675 448.046 243.4C448.658 243.145 449.672 243.13 450.654 243.115C452.481 243.087 454.55 243.057 455.989 241.618C457.428 240.179 457.458 238.11 457.486 236.283C457.501 235.301 457.516 234.287 457.771 233.675C458.046 233.009 458.776 232.247 459.481 231.51C460.722 230.219 462.127 228.752 462.127 226.798C462.127 224.844 460.722 223.379 459.481 222.086ZM449.713 223.366L439.234 233.845C439.095 233.984 438.93 234.095 438.748 234.17C438.567 234.245 438.372 234.284 438.175 234.284C437.978 234.284 437.783 234.245 437.602 234.17C437.42 234.095 437.255 233.984 437.116 233.845L432.625 229.354C432.486 229.215 432.375 229.05 432.3 228.868C432.225 228.686 432.186 228.492 432.186 228.295C432.186 228.098 432.225 227.903 432.3 227.722C432.375 227.54 432.486 227.375 432.625 227.236C432.906 226.955 433.287 226.797 433.684 226.797C433.881 226.797 434.075 226.836 434.257 226.911C434.439 226.986 434.604 227.097 434.743 227.236L438.175 230.67L447.595 221.248C447.734 221.109 447.899 220.998 448.081 220.923C448.263 220.848 448.457 220.809 448.654 220.809C448.851 220.809 449.046 220.848 449.227 220.923C449.409 220.998 449.574 221.109 449.713 221.248C449.852 221.387 449.963 221.552 450.038 221.734C450.113 221.915 450.152 222.11 450.152 222.307C450.152 222.504 450.113 222.698 450.038 222.88C449.963 223.062 449.852 223.227 449.713 223.366Z" fill="#27AE60"/>
<path d="M237.751 110.664C237.399 110.296 237.034 109.916 236.896 109.582C236.769 109.276 236.761 108.769 236.754 108.277C236.74 107.364 236.725 106.329 236.005 105.61C235.286 104.89 234.251 104.875 233.338 104.861C232.847 104.854 232.34 104.846 232.034 104.719C231.701 104.582 231.32 104.217 230.951 103.864C230.306 103.244 229.572 102.541 228.595 102.541C227.618 102.541 226.886 103.244 226.239 103.864C225.871 104.217 225.491 104.582 225.157 104.719C224.853 104.846 224.344 104.854 223.853 104.861C222.939 104.875 221.905 104.89 221.185 105.61C220.466 106.329 220.455 107.364 220.437 108.277C220.429 108.769 220.422 109.276 220.294 109.582C220.157 109.915 219.792 110.296 219.439 110.664C218.819 111.31 218.116 112.043 218.116 113.02C218.116 113.997 218.819 114.729 219.439 115.376C219.792 115.745 220.157 116.124 220.294 116.459C220.422 116.764 220.429 117.272 220.437 117.763C220.451 118.676 220.466 119.711 221.185 120.43C221.905 121.15 222.939 121.165 223.853 121.179C224.344 121.186 224.851 121.194 225.157 121.321C225.49 121.459 225.871 121.823 226.239 122.176C226.885 122.796 227.618 123.499 228.595 123.499C229.572 123.499 230.305 122.796 230.951 122.176C231.32 121.823 231.7 121.459 232.034 121.321C232.34 121.194 232.847 121.186 233.338 121.179C234.251 121.165 235.286 121.15 236.005 120.43C236.725 119.711 236.74 118.676 236.754 117.763C236.761 117.272 236.769 116.764 236.896 116.459C237.034 116.125 237.399 115.745 237.751 115.376C238.372 114.73 239.074 113.997 239.074 113.02C239.074 112.043 238.372 111.311 237.751 110.664ZM232.867 111.304L227.628 116.544C227.558 116.613 227.476 116.668 227.385 116.706C227.294 116.744 227.197 116.763 227.098 116.763C227 116.763 226.902 116.744 226.812 116.706C226.721 116.668 226.638 116.613 226.569 116.544L224.323 114.298C224.254 114.229 224.198 114.146 224.161 114.055C224.123 113.964 224.104 113.867 224.104 113.769C224.104 113.67 224.123 113.573 224.161 113.482C224.198 113.391 224.254 113.309 224.323 113.239C224.464 113.099 224.654 113.02 224.853 113.02C224.951 113.02 225.048 113.039 225.139 113.077C225.23 113.114 225.313 113.169 225.382 113.239L227.098 114.956L231.808 110.245C231.878 110.175 231.96 110.12 232.051 110.083C232.142 110.045 232.239 110.026 232.338 110.026C232.436 110.026 232.534 110.045 232.624 110.083C232.715 110.12 232.798 110.175 232.867 110.245C232.937 110.315 232.992 110.397 233.03 110.488C233.067 110.579 233.087 110.676 233.087 110.775C233.087 110.873 233.067 110.97 233.03 111.061C232.992 111.152 232.937 111.235 232.867 111.304Z" fill="#27AE60"/>
<path fill-rule="evenodd" clip-rule="evenodd" d="M202.625 261.496C210.594 261.496 217 255.091 217 247.121C217 239.152 210.594 232.746 202.625 232.746C194.655 232.746 188.25 239.152 188.25 247.121C188.25 255.091 194.655 261.496 202.625 261.496ZM206.578 249.392C206.578 247.299 205.32 246.581 202.805 246.284C201.008 246.043 200.648 245.566 200.648 244.722C200.648 243.885 201.252 243.348 202.445 243.348C203.523 243.348 204.127 243.707 204.422 244.604C204.454 244.69 204.512 244.765 204.587 244.818C204.663 244.871 204.752 244.9 204.844 244.902H205.798C205.853 244.903 205.908 244.894 205.959 244.874C206.011 244.854 206.057 244.823 206.097 244.785C206.136 244.746 206.167 244.7 206.188 244.649C206.209 244.598 206.22 244.543 206.219 244.488V244.424C205.977 243.105 204.899 241.847 203.523 241.729V240.409C203.523 240.166 203.344 239.987 203.049 239.932H202.258C202.014 239.932 201.79 240.112 201.727 240.409V241.729C199.93 241.973 198.737 243.348 198.737 244.848C198.737 246.824 199.93 247.597 202.445 247.902C204.127 248.198 204.665 248.559 204.665 249.519C204.665 250.472 203.821 251.136 202.688 251.136C201.126 251.136 200.587 250.472 200.407 249.573C200.352 249.339 200.173 249.214 199.993 249.214H198.969C198.914 249.213 198.859 249.224 198.808 249.245C198.757 249.266 198.711 249.297 198.672 249.336C198.634 249.375 198.603 249.422 198.583 249.474C198.563 249.525 198.554 249.58 198.555 249.635V249.699C198.79 251.191 199.75 252.214 201.728 252.512V253.84C201.728 254.084 201.908 254.245 202.202 254.307H203.065C203.299 254.307 203.462 254.146 203.525 253.84V252.51C205.322 252.214 206.578 251.011 206.578 249.394M196.576 253.87C197.444 254.667 198.462 255.283 199.57 255.684C199.75 255.809 199.93 256.044 199.93 256.223V257.067C199.93 257.184 199.93 257.247 199.868 257.301C199.813 257.543 199.57 257.661 199.329 257.543C197.149 256.849 195.246 255.479 193.896 253.633C192.546 251.786 191.818 249.558 191.818 247.27C191.818 244.982 192.546 242.754 193.896 240.907C195.246 239.06 197.149 237.691 199.329 236.997C199.391 236.942 199.508 236.942 199.57 236.942C199.815 236.997 199.93 237.176 199.93 237.418V238.255C199.93 238.559 199.815 238.739 199.57 238.855C198.346 239.298 197.233 240.005 196.313 240.926C195.392 241.847 194.685 242.959 194.243 244.184C193.625 245.848 193.517 247.658 193.933 249.383C194.348 251.108 195.268 252.67 196.576 253.87ZM205.384 237.238C205.438 236.997 205.68 236.879 205.923 236.997C207.569 237.532 209.065 238.452 210.284 239.682C211.503 240.912 212.41 242.415 212.93 244.066C214.727 249.755 211.609 255.809 205.923 257.606C205.859 257.661 205.743 257.661 205.68 257.661C205.438 257.606 205.32 257.427 205.32 257.184V256.35C205.32 256.044 205.438 255.864 205.68 255.746C208.133 254.848 210.11 252.934 211.008 250.419C211.419 249.314 211.607 248.139 211.561 246.962C211.516 245.784 211.237 244.627 210.741 243.558C210.246 242.489 209.544 241.528 208.675 240.732C207.806 239.936 206.788 239.319 205.68 238.919C205.5 238.794 205.32 238.559 205.32 238.316V237.483C205.32 237.356 205.32 237.302 205.384 237.238Z" fill="#2775CA"/>
<g clip-path="url(#clip0_4446_27686)">
<path d="M342 226.621C350.284 226.621 357 219.905 357 211.621C357 203.337 350.284 196.621 342 196.621C333.716 196.621 327 203.337 327 211.621C327 219.905 333.716 226.621 342 226.621Z" fill="#26A17B"/>
<path fill-rule="evenodd" clip-rule="evenodd" d="M343.802 212.917V212.916C343.699 212.923 343.167 212.955 341.981 212.955C341.034 212.955 340.368 212.927 340.133 212.916V212.918C336.488 212.758 333.768 212.123 333.768 211.364C333.768 210.605 336.488 209.971 340.133 209.808V212.286C340.372 212.303 341.054 212.344 341.997 212.344C343.129 212.344 343.696 212.297 343.802 212.287V209.81C347.439 209.972 350.153 210.606 350.153 211.364C350.153 212.123 347.439 212.756 343.802 212.917ZM343.802 209.552V207.334H348.877V203.951H335.058V207.334H340.133V209.551C336.008 209.74 332.906 210.558 332.906 211.536C332.906 212.515 336.008 213.332 340.133 213.522V220.63H343.802V213.52C347.92 213.331 351.015 212.514 351.015 211.536C351.015 210.559 347.92 209.742 343.802 209.552Z" fill="white"/>
</g>
<defs>
<filter id="filter0_df_4446_27686" x="-20.0557" y="35.9258" width="547.011" height="430.398" filterUnits="userSpaceOnUse" color-interpolation-filters="sRGB">
<feFlood flood-opacity="0" result="BackgroundImageFix"/>
<feColorMatrix in="SourceAlpha" type="matrix" values="0 0 0 0 0 0 0 0 0 0 0 0 0 0 0 0 0 0 127 0" result="hardAlpha"/>
<feOffset dx="53"/>
<feGaussianBlur stdDeviation="60"/>
<feComposite in2="hardAlpha" operator="out"/>
<feColorMatrix type="matrix" values="0 0 0 0 0.6 0 0 0 0 0 0 0 0 0 0.6 0 0 0 0.05 0"/>
<feBlend mode="normal" in2="BackgroundImageFix" result="effect1_dropShadow_4446_27686"/>
<feBlend mode="normal" in="SourceGraphic" in2="effect1_dropShadow_4446_27686" result="shape"/>
<feGaussianBlur stdDeviation="1.55" result="effect2_foregroundBlur_4446_27686"/>
</filter>
<filter id="filter1_df_4446_27686" x="144.618" y="0" width="513.475" height="422.156" filterUnits="userSpaceOnUse" color-interpolation-filters="sRGB">
<feFlood flood-opacity="0" result="BackgroundImageFix"/>
<feColorMatrix in="SourceAlpha" type="matrix" values="0 0 0 0 0 0 0 0 0 0 0 0 0 0 0 0 0 0 127 0" result="hardAlpha"/>
<feOffset dx="53"/>
<feGaussianBlur stdDeviation="60"/>
<feComposite in2="hardAlpha" operator="out"/>
<feColorMatrix type="matrix" values="0 0 0 0 0.6 0 0 0 0 0 0 0 0 0 0.6 0 0 0 0.05 0"/>
<feBlend mode="normal" in2="BackgroundImageFix" result="effect1_dropShadow_4446_27686"/>
<feBlend mode="normal" in="SourceGraphic" in2="effect1_dropShadow_4446_27686" result="shape"/>
<feGaussianBlur stdDeviation="1.55" result="effect2_foregroundBlur_4446_27686"/>
</filter>
<filter id="filter2_f_4446_27686" x="227.469" y="46.0293" width="229.797" height="228.299" filterUnits="userSpaceOnUse" color-interpolation-filters="sRGB">
<feFlood flood-opacity="0" result="BackgroundImageFix"/>
<feBlend mode="normal" in="SourceGraphic" in2="BackgroundImageFix" result="shape"/>
<feGaussianBlur stdDeviation="32" result="effect1_foregroundBlur_4446_27686"/>
</filter>
<filter id="filter3_f_4446_27686" x="216.989" y="119.381" width="229.797" height="229.797" filterUnits="userSpaceOnUse" color-interpolation-filters="sRGB">
<feFlood flood-opacity="0" result="BackgroundImageFix"/>
<feBlend mode="normal" in="SourceGraphic" in2="BackgroundImageFix" result="shape"/>
<feGaussianBlur stdDeviation="32" result="effect1_foregroundBlur_4446_27686"/>
</filter>
<filter id="filter4_f_4446_27686" x="85.4197" y="167.454" width="262.397" height="262.397" filterUnits="userSpaceOnUse" color-interpolation-filters="sRGB">
<feFlood flood-opacity="0" result="BackgroundImageFix"/>
<feBlend mode="normal" in="SourceGraphic" in2="BackgroundImageFix" result="shape"/>
<feGaussianBlur stdDeviation="40.15" result="effect1_foregroundBlur_4446_27686"/>
</filter>
<filter id="filter5_f_4446_27686" x="125.669" y="96.9277" width="229.797" height="229.797" filterUnits="userSpaceOnUse" color-interpolation-filters="sRGB">
<feFlood flood-opacity="0" result="BackgroundImageFix"/>
<feBlend mode="normal" in="SourceGraphic" in2="BackgroundImageFix" result="shape"/>
<feGaussianBlur stdDeviation="32" result="effect1_foregroundBlur_4446_27686"/>
</filter>
<filter id="filter6_f_4446_27686" x="-6.7" y="219.046" width="184.658" height="184.658" filterUnits="userSpaceOnUse" color-interpolation-filters="sRGB">
<feFlood flood-opacity="0" result="BackgroundImageFix"/>
<feBlend mode="normal" in="SourceGraphic" in2="BackgroundImageFix" result="shape"/>
<feGaussianBlur stdDeviation="15.85" result="effect1_foregroundBlur_4446_27686"/>
</filter>
<filter id="filter7_f_4446_27686" x="372.042" y="31.9211" width="184.658" height="184.658" filterUnits="userSpaceOnUse" color-interpolation-filters="sRGB">
<feFlood flood-opacity="0" result="BackgroundImageFix"/>
<feBlend mode="normal" in="SourceGraphic" in2="BackgroundImageFix" result="shape"/>
<feGaussianBlur stdDeviation="15.85" result="effect1_foregroundBlur_4446_27686"/>
</filter>
<linearGradient id="paint0_linear_4446_27686" x1="52.2049" y1="341.752" x2="349.213" y2="161.352" gradientUnits="userSpaceOnUse">
<stop stop-color="#FBE6B0"/>
<stop offset="0.353093" stop-color="#F6C03A" stop-opacity="0.37"/>
<stop offset="0.997569" stop-color="#9A0000"/>
</linearGradient>
<linearGradient id="paint1_linear_4446_27686" x1="216.893" y1="297.575" x2="480.365" y2="125.418" gradientUnits="userSpaceOnUse">
<stop offset="0.00203661" stop-color="#F6C03A"/>
<stop offset="0.353093" stop-color="#1F2065"/>
<stop offset="1" stop-color="#9A0000" stop-opacity="0.27"/>
</linearGradient>
<clipPath id="clip0_4446_27686">
<rect width="30" height="30" fill="white" transform="translate(327 196.621)"/>
</clipPath>
</defs>
</svg>
