<svg width="329" height="203" viewBox="0 0 329 203" fill="none" xmlns="http://www.w3.org/2000/svg">
<path d="M310.154 173.336L314.817 181.923L314.818 181.924L314.378 182.163L319.042 190.752L319.48 190.513L319.48 190.512L324.143 199.103L324.144 199.102L323.704 199.341L328.367 207.93L328.807 207.691L328.806 207.69L333.469 216.279L333.469 216.28L333.03 216.518L337.693 225.108L338.132 224.869L338.131 224.868L342.795 233.457L342.796 233.458L342.356 233.696L347.019 242.285L347.458 242.047L347.458 242.046L352.121 250.635L352.121 250.635L351.682 250.874L353.655 254.51L349.472 254.941L349.522 255.437L339.662 256.454L339.61 255.957L329.75 256.974L329.802 257.471L319.94 258.488L319.89 257.991L310.029 259.008L310.08 259.505L300.219 260.522L300.169 260.025L290.308 261.041L290.36 261.538L280.499 262.555L280.448 262.058L270.587 263.075L270.639 263.571L260.778 264.588L260.727 264.092L250.867 265.108L250.917 265.606L241.056 266.623L241.006 266.126L236.076 266.634L235.894 266.652L235.767 266.785L232.334 270.359L232.694 270.705L225.827 277.855L225.467 277.509L218.601 284.658L218.96 285.004L212.094 292.154L211.734 291.807L204.867 298.957L205.227 299.303L198.36 306.452L198.001 306.106L191.135 313.256L191.495 313.602L184.628 320.752L184.268 320.406L177.402 327.555L177.761 327.901L170.895 335.05L170.536 334.704L163.669 341.853L164.029 342.2L157.162 349.349L156.803 349.004L153.889 352.037L152.236 348.245L151.778 348.445L147.873 339.485L147.874 339.485L148.332 339.286L144.428 330.326L143.97 330.526L143.968 330.526L140.065 321.567L140.524 321.367L136.619 312.408L136.161 312.607L136.16 312.607L132.256 303.648L132.257 303.648L132.715 303.449L128.811 294.489L128.353 294.689L124.447 285.729L124.449 285.729L124.907 285.53L121.002 276.57L120.544 276.77L120.543 276.77L116.64 267.811L117.099 267.611L113.194 258.652L112.736 258.852L108.83 249.891L108.832 249.892L109.289 249.692L107.337 245.213L107.262 245.04L107.091 244.96L102.638 242.874L102.426 243.327L93.5186 239.156L93.7317 238.705L84.8252 234.534L84.6122 234.986L75.7061 230.816L75.9179 230.364L67.0119 226.194L66.7988 226.646L57.8924 222.475L58.1054 222.023L49.1981 217.853L48.9854 218.306L40.079 214.135L40.2916 213.682L31.3856 209.513L31.1725 209.964L22.2656 205.795L22.4783 205.342L13.5718 201.172L13.3592 201.624L4.45272 197.454L4.66446 197.001L0.901944 195.24L4.05405 192.468L3.72393 192.092L3.72263 192.092L11.1698 185.538L11.1711 185.539L11.5012 185.914L18.9488 179.359L18.6182 178.985L18.6169 178.985L26.0649 172.43L26.0663 172.431L26.3959 172.806L33.844 166.252L33.5134 165.877L33.5121 165.877L40.9597 159.322L40.961 159.322L41.2911 159.698L48.7391 153.144L48.4081 152.769L55.8549 146.214L55.8562 146.215L56.1863 146.59L63.6343 140.036L63.3033 139.661L63.302 139.661L70.75 133.106L70.7513 133.107L71.0815 133.483L78.5295 126.929L78.1985 126.553L78.1972 126.553L85.6452 119.999L85.6465 119.999L85.9766 120.375L89.7004 117.097L89.8396 116.975L89.8654 116.792L90.5456 111.928L90.051 111.859L90.0497 111.858L91.4115 102.131L91.4128 102.132L91.9074 102.201L93.2697 92.4749L92.7746 92.4047L92.7733 92.4043L94.1347 82.6785L94.136 82.6789L94.6315 82.7478L95.9933 73.0207L95.4979 72.9518L95.4965 72.9514L96.8584 63.2243L96.8597 63.2247L97.3552 63.2936L98.7174 53.5674L98.2215 53.4977L99.5825 43.771L99.5838 43.7714L100.078 43.8408L101.44 34.1137L100.946 34.0444L100.944 34.0439L102.306 24.3168L102.307 24.3173L102.802 24.3866L104.164 14.6595L103.669 14.5902L103.668 14.5897L105.03 4.86351L105.526 4.93328L106.103 0.803583L109.716 2.88794L109.965 2.45442L109.964 2.45354L118.472 7.36246L118.472 7.36334L118.222 7.79598L126.73 12.7049L126.979 12.2723L126.979 12.2714L135.486 17.1803L135.487 17.1812L135.236 17.6142L143.743 22.5232L143.994 22.0901L143.993 22.0892L152.5 26.9986L152.251 27.4321L160.757 32.3401L161.007 31.9075L169.514 36.8155L169.514 36.8164L169.265 37.249L177.772 42.158L178.021 41.7253L178.021 41.7244L186.527 46.6338L186.528 46.6334L186.279 47.0669L194.786 51.9749L195.035 51.5427L203.542 56.4516L203.543 56.4512L203.292 56.8843L207.547 59.3389L207.707 59.4313L207.889 59.3968L212.764 58.4765L212.67 57.9851L212.67 57.9842L222.419 56.1427L222.419 56.1436L222.511 56.6353L232.26 54.7938L232.167 54.3024L232.166 54.3016L241.915 52.46L241.916 52.4609L242.008 52.9527L251.757 51.1111L251.663 50.6198L251.663 50.6189L261.411 48.7787L261.504 49.27L271.253 47.4285L271.159 46.9376L280.908 45.096L280.908 45.0969L281.001 45.5874L290.75 43.7458L290.657 43.2554L290.657 43.2545L300.404 41.4134L300.405 41.4142L300.498 41.9047L310.247 40.0641L310.154 39.5727L310.153 39.5718L319.901 37.7307L319.901 37.7316L319.995 38.2229L324.118 37.4431L323.193 41.4931L323.68 41.6043L321.49 51.1921L321.003 51.0809L318.814 60.6687L319.301 60.7798L317.11 70.3672L316.624 70.2569L314.434 79.8438L314.921 79.955L312.731 89.5427L312.244 89.4316L310.054 99.0198L310.54 99.1301L308.351 108.718L307.865 108.608L305.675 118.194L306.161 118.306L303.971 127.893L303.484 127.783L301.295 137.37L301.782 137.482L299.591 147.069L299.105 146.957L298.01 151.752L297.968 151.936L298.057 152.102L300.39 156.396L300.829 156.157L300.828 156.156L305.491 164.746L305.492 164.747L305.053 164.985L309.715 173.574L310.154 173.336Z" stroke="#9A0000" stroke-dasharray="10 10"/>
</svg>
