<svg width="16" height="11" viewBox="0 0 16 11" fill="none" xmlns="http://www.w3.org/2000/svg">
<path d="M3.02659 6.45688C2.98545 6.42666 2.93603 6.40976 2.885 6.40845C2.83397 6.40714 2.78376 6.42149 2.74112 6.44956C2.69848 6.47764 2.66546 6.51809 2.64649 6.56549C2.62753 6.61288 2.62353 6.66495 2.63503 6.71469C3.18971 9.165 5.3844 11 8.00003 11C8.55548 11.0002 9.10773 10.9159 9.63784 10.75C9.68676 10.7349 9.72987 10.7052 9.76135 10.6648C9.79283 10.6244 9.81115 10.5754 9.81384 10.5242C9.81653 10.4731 9.80347 10.4224 9.77641 10.3789C9.74934 10.3355 9.70959 10.3014 9.66253 10.2813C8.49119 9.76498 7.34906 9.18484 6.24128 8.54344C5.13261 7.90683 4.05945 7.21028 3.02659 6.45688ZM15.3975 8.10969C15.2666 7.93531 15.1128 7.75219 14.9382 7.56188C14.8811 7.499 14.8088 7.45188 14.7282 7.42505C14.6476 7.39822 14.5615 7.39258 14.4781 7.40869C14.3947 7.4248 14.3169 7.4621 14.2521 7.517C14.1873 7.57191 14.1377 7.64257 14.1082 7.72219C14.1082 7.72719 14.1047 7.73188 14.1028 7.73688C14.0717 7.82152 14.0644 7.9131 14.0818 8.0016C14.0991 8.09011 14.1405 8.17215 14.2013 8.23875C14.9119 9.02 15.0269 9.44219 14.9975 9.53125C14.935 9.60094 14.4647 9.74656 13.1803 9.42094C12.9964 9.37427 12.7951 9.3174 12.5766 9.25031C12.4358 9.20698 12.2921 9.16021 12.1457 9.11C12.3757 8.84611 12.5801 8.56098 12.7563 8.25844C12.7616 8.24938 12.7672 8.24031 12.7725 8.23094C13.2496 7.39987 13.5004 6.45826 13.5 5.5C13.5001 5.30167 13.4897 5.10347 13.4688 4.90625C13.1697 2.15094 10.8313 8.67907e-07 8.00003 8.67907e-07C6.79873 -0.000674984 5.63048 0.393388 4.67503 1.12156C4.09593 1.56232 3.60928 2.11279 3.24284 2.74156C3.23784 2.75063 3.23221 2.75969 3.2269 2.76875C3.05275 3.07216 2.90803 3.39153 2.79471 3.7225C2.67826 3.62104 2.56586 3.52031 2.45753 3.42031C2.28909 3.26406 2.13971 3.11938 2.0069 2.98281C1.08284 2.03719 0.97284 1.5575 1.0019 1.46875C1.0644 1.39906 1.48753 1.28531 2.52128 1.50969C2.60966 1.52912 2.70168 1.52393 2.78731 1.49467C2.87294 1.46541 2.9489 1.41321 3.0069 1.34375L3.01815 1.33C3.07207 1.26521 3.10843 1.18765 3.12375 1.10476C3.13907 1.02187 3.13282 0.936432 3.10562 0.856649C3.07842 0.776866 3.03118 0.705411 2.96841 0.649142C2.90565 0.592873 2.82948 0.553676 2.74722 0.535313C2.50186 0.479699 2.25383 0.436622 2.00409 0.406251C1.04409 0.295938 0.415652 0.485001 0.135965 0.968751C0.0347149 1.14313 -0.0624726 1.44031 0.0509649 1.8625C0.218777 2.48938 0.816902 3.25 1.66346 4.04688C1.93315 4.30094 2.22784 4.55844 2.54221 4.81688C2.77096 5.00438 3.01096 5.19375 3.25784 5.38188C3.42263 5.50688 3.59086 5.63188 3.76253 5.75688C3.93419 5.88188 4.10815 6.00458 4.2844 6.125C5.07846 6.67531 5.91753 7.20375 6.74034 7.67781C7.03909 7.8499 7.33742 8.01656 7.63534 8.17781C7.93326 8.33906 8.22878 8.49333 8.5219 8.64063C9.20628 8.98438 9.87659 9.29438 10.5175 9.56031C10.7923 9.67448 11.0612 9.78031 11.3241 9.87781C11.6957 10.0159 12.0544 10.1375 12.3963 10.24L12.4307 10.2503C13.2347 10.4897 13.9125 10.6156 14.4457 10.6253H14.5C15.1763 10.6253 15.6344 10.4259 15.8619 10.0316C16.146 9.54344 15.9894 8.89656 15.3975 8.10969Z" fill="#9A0000"/>
</svg>
