<svg width="32" height="32" viewBox="0 0 32 32" fill="none" xmlns="http://www.w3.org/2000/svg">
<g filter="url(#filter0_f_4446_27583)">
<g clip-path="url(#clip0_4446_27583)">
<mask id="mask0_4446_27583" style="mask-type:luminance" maskUnits="userSpaceOnUse" x="4" y="4" width="24" height="24">
<path d="M16 28C22.6274 28 28 22.6274 28 16C28 9.37258 22.6274 4 16 4C9.37258 4 4 9.37258 4 16C4 22.6274 9.37258 28 16 28Z" fill="white"/>
</mask>
<g mask="url(#mask0_4446_27583)">
<path d="M4 4H28V28H4V4Z" fill="#044491"/>
<path d="M16.0004 8.69727L16.3895 9.89258H17.641L16.6238 10.6285L17.0129 11.8285L15.9957 11.0879L14.9785 11.8285L15.3676 10.6285L14.3504 9.89258H15.6066L16.0004 8.69727ZM10.8348 10.8348L11.9598 11.4066L12.8457 10.516L12.6488 11.7582L13.7691 12.3301L12.527 12.527L12.3301 13.7691L11.7582 12.6441L10.516 12.8457L11.4066 11.9551L10.8348 10.8348ZM8.69727 16.0004L9.89258 15.6113V14.3598L10.6285 15.377L11.8285 14.9879L11.0879 16.0051L11.8285 17.0223L10.6285 16.6332L9.89258 17.6504V16.3941L8.69727 16.0004ZM10.8348 21.166L11.4066 20.041L10.516 19.1551L11.7582 19.352L12.3301 18.2316L12.527 19.4738L13.7691 19.6707L12.6441 20.2426L12.8457 21.4848L11.9551 20.5941L10.8348 21.166ZM16.0004 23.3035L15.6113 22.1082H14.3598L15.377 21.3723L14.9879 20.1723L16.0051 20.9129L17.0223 20.1723L16.6332 21.3723L17.6504 22.1082H16.3941L16.0004 23.3035ZM21.166 21.166L20.041 20.5941L19.1551 21.4848L19.352 20.2426L18.2316 19.6707L19.4738 19.4738L19.6707 18.2316L20.2426 19.3566L21.4848 19.1551L20.5941 20.0457L21.166 21.166ZM23.3035 16.0004L22.1082 16.3895V17.641L21.3723 16.6238L20.1723 17.0129L20.9129 15.9957L20.1723 14.9785L21.3723 15.3676L22.1082 14.3504V15.6066L23.3035 16.0004ZM21.166 10.8348L20.5941 11.9598L21.4848 12.8457L20.2426 12.6488L19.6707 13.7691L19.4738 12.527L18.2316 12.3301L19.3566 11.7582L19.1551 10.516L20.0457 11.4066L21.166 10.8348Z" fill="#FFDA44"/>
</g>
</g>
</g>
<defs>
<filter id="filter0_f_4446_27583" x="0" y="0" width="32" height="32" filterUnits="userSpaceOnUse" color-interpolation-filters="sRGB">
<feFlood flood-opacity="0" result="BackgroundImageFix"/>
<feBlend mode="normal" in="SourceGraphic" in2="BackgroundImageFix" result="shape"/>
<feGaussianBlur stdDeviation="2" result="effect1_foregroundBlur_4446_27583"/>
</filter>
<clipPath id="clip0_4446_27583">
<rect width="24" height="24" fill="white" transform="translate(4 4)"/>
</clipPath>
</defs>
</svg>
