<svg width="31" height="31" viewBox="0 0 31 31" fill="none" xmlns="http://www.w3.org/2000/svg">
<g filter="url(#filter0_f_4446_27567)">
<g clip-path="url(#clip0_4446_27567)">
<path d="M21.25 5.725C19.4875 4.6375 17.4625 4 15.25 4V5.725H21.25Z" fill="#D52B1E"/>
<path d="M15.25 7.44961H23.35C22.7125 6.81211 22 6.21211 21.25 5.72461H15.25V7.44961Z" fill="white"/>
<path d="M15.25 9.17422H24.7375C24.325 8.53672 23.875 7.97422 23.3875 7.44922H15.25V9.17422Z" fill="#D52B1E"/>
<path d="M15.25 10.9008H25.6375C25.375 10.3008 25.075 9.70078 24.7375 9.17578H15.25V10.9008Z" fill="white"/>
<path d="M15.25 12.6254H26.2C26.05 12.0254 25.8625 11.4629 25.6375 10.9004H15.25V12.6254Z" fill="#D52B1E"/>
<path d="M15.25 14.3871H26.4625C26.425 13.7871 26.3125 13.2246 26.2 12.6621H15.25V14.3871Z" fill="white"/>
<path d="M26.4625 14.3867H15.25V15.2492H4C4 15.5492 4 15.8117 4.0375 16.1117H26.4625C26.5 15.8117 26.5 15.5492 26.5 15.2492C26.5 14.9492 26.5 14.6492 26.4625 14.3867Z" fill="#D52B1E"/>
<path d="M4.29961 17.8383H26.1996C26.3496 17.2758 26.4246 16.7133 26.4621 16.1133H4.03711C4.07461 16.6758 4.14961 17.2758 4.29961 17.8383Z" fill="white"/>
<path d="M4.8623 19.5629H25.6373C25.8623 19.0004 26.0498 18.4379 26.1998 17.8379H4.2998C4.4498 18.4379 4.6373 19.0004 4.8623 19.5629Z" fill="#D52B1E"/>
<path d="M5.7623 21.2875H24.7373C25.0748 20.725 25.3748 20.1625 25.6373 19.5625H4.8623C5.1248 20.1625 5.4248 20.725 5.7623 21.2875Z" fill="white"/>
<path d="M7.1127 23.0121H23.3877C23.8752 22.4871 24.3627 21.8871 24.7377 21.2871H5.7627C6.1377 21.9246 6.6252 22.4871 7.1127 23.0121Z" fill="#D52B1E"/>
<path d="M9.2123 24.7367H21.2873C22.0748 24.2492 22.7498 23.6492 23.3873 23.0117H7.1123C7.7498 23.6867 8.4623 24.2492 9.2123 24.7367Z" fill="white"/>
<path d="M15.2504 26.5008C17.4629 26.5008 19.5254 25.8633 21.2879 24.7383H9.21289C10.9754 25.8633 13.0379 26.5008 15.2504 26.5008Z" fill="#D52B1E"/>
<path d="M9.25 5.725C8.4625 6.2125 7.75 6.8125 7.1125 7.45C6.5875 7.975 6.1375 8.575 5.7625 9.175C5.425 9.7375 5.0875 10.3 4.8625 10.9C4.6375 11.4625 4.45 12.025 4.3 12.625C4.15 13.1875 4.075 13.75 4.0375 14.35C4 14.65 4 14.95 4 15.25H15.25V4C13.0375 4 11.0125 4.6375 9.25 5.725Z" fill="#428BC1"/>
<path d="M12.6254 4.375L12.8129 4.9375H13.3754L12.9254 5.3125L13.0754 5.875L12.6254 5.5375L12.1754 5.875L12.3254 5.3125L11.8754 4.9375H12.4379L12.6254 4.375ZM14.1254 6.625L14.3129 7.1875H14.8754L14.4254 7.5625L14.5754 8.125L14.1254 7.7875L13.6754 8.125L13.8254 7.5625L13.3754 7.1875H13.9379L14.1254 6.625ZM11.1254 6.625L11.3129 7.1875H11.8754L11.4254 7.5625L11.5754 8.125L11.1254 7.7875L10.6754 8.125L10.8254 7.5625L10.3754 7.1875H10.9379L11.1254 6.625ZM12.6254 8.875L12.8129 9.4375H13.3754L12.9254 9.8125L13.0754 10.375L12.6254 10.0375L12.1754 10.375L12.3254 9.8125L11.8754 9.4375H12.4379L12.6254 8.875ZM9.62539 8.875L9.81289 9.4375H10.3754L9.92539 9.8125L10.0754 10.375L9.62539 10.0375L9.17539 10.375L9.32539 9.8125L8.87539 9.4375H9.43789L9.62539 8.875ZM6.62539 8.875L6.81289 9.4375H7.37539L6.92539 9.8125L7.07539 10.375L6.62539 10.0375L6.17539 10.375L6.32539 9.8125L5.87539 9.4375H6.43789L6.62539 8.875ZM14.1254 11.125L14.3129 11.6875H14.8754L14.4254 12.0625L14.5754 12.625L14.1254 12.2875L13.6754 12.625L13.8254 12.0625L13.3754 11.6875H13.9379L14.1254 11.125ZM11.1254 11.125L11.3129 11.6875H11.8754L11.4254 12.0625L11.5754 12.625L11.1254 12.2875L10.6754 12.625L10.8254 12.0625L10.3754 11.6875H10.9379L11.1254 11.125ZM8.12539 11.125L8.31289 11.6875H8.87539L8.42539 12.0625L8.57539 12.625L8.12539 12.2875L7.67539 12.625L7.82539 12.0625L7.37539 11.6875H7.93789L8.12539 11.125ZM12.6254 13.375L12.8129 13.9375H13.3754L12.9254 14.3125L13.0754 14.875L12.6254 14.5375L12.1754 14.875L12.3254 14.3125L11.8754 13.9375H12.4379L12.6254 13.375ZM9.62539 13.375L9.81289 13.9375H10.3754L9.92539 14.3125L10.0754 14.875L9.62539 14.5375L9.17539 14.875L9.32539 14.3125L8.87539 13.9375H9.43789L9.62539 13.375ZM6.62539 13.375L6.81289 13.9375H7.37539L6.92539 14.3125L7.07539 14.875L6.62539 14.5375L6.17539 14.875L6.32539 14.3125L5.87539 13.9375H6.43789L6.62539 13.375ZM7.67539 8.125L8.12539 7.7875L8.57539 8.125L8.38789 7.5625L8.83789 7.1875H8.27539L8.12539 6.625L7.93789 7.1875H7.41289L7.86289 7.525L7.67539 8.125ZM4.67539 12.625L5.12539 12.2875L5.57539 12.625L5.38789 12.0625L5.83789 11.6875H5.31289L5.12539 11.125L4.93789 11.6875H4.56289C4.56289 11.725 4.52539 11.7625 4.52539 11.8L4.82539 12.025L4.67539 12.625Z" fill="white"/>
</g>
</g>
<defs>
<filter id="filter0_f_4446_27567" x="-0.75" y="-0.75" width="32" height="32" filterUnits="userSpaceOnUse" color-interpolation-filters="sRGB">
<feFlood flood-opacity="0" result="BackgroundImageFix"/>
<feBlend mode="normal" in="SourceGraphic" in2="BackgroundImageFix" result="shape"/>
<feGaussianBlur stdDeviation="2" result="effect1_foregroundBlur_4446_27567"/>
</filter>
<clipPath id="clip0_4446_27567">
<rect width="24" height="24" fill="white" transform="translate(3.25 3.25)"/>
</clipPath>
</defs>
</svg>
