<svg width="31" height="31" viewBox="0 0 31 31" fill="none" xmlns="http://www.w3.org/2000/svg">
<g filter="url(#filter0_f_4446_27560)">
<g clip-path="url(#clip0_4446_27560)">
<path d="M21.25 5.725C19.525 4.6375 17.4625 4 15.25 4C13.0375 4 10.975 4.6375 9.25 5.725V24.7375C10.975 25.825 13.0375 26.4625 15.25 26.4625C17.4625 26.4625 19.525 25.825 21.25 24.7375V5.725Z" fill="#F9F9F9"/>
<path d="M21.25 5.72461V24.7371C24.4 22.7871 26.5 19.1871 26.5 15.2121C26.5 11.2371 24.4 7.71211 21.25 5.72461ZM9.25 5.72461C6.1 7.71211 4 11.3121 4 15.2496C4 19.1871 6.1 22.7871 9.25 24.7746V5.72461ZM19.3375 15.0996C19.1875 15.0246 19.15 14.8746 19.1875 14.7996L19.5625 13.4496L18.25 13.7121C18.2125 13.7121 18.0625 13.7121 18.025 13.4496L17.9125 12.9996L17.0125 14.0496C17.0125 14.0496 16.4125 14.6871 16.6 13.7121L16.975 11.6496L16.2625 12.0246C16.225 12.0246 16.075 12.0621 15.8875 11.6871L15.25 10.3746L14.575 11.6121C14.3875 11.9871 14.2375 11.9496 14.2 11.9496L13.4875 11.5746L13.8625 13.6371C14.05 14.6121 13.45 13.9746 13.45 13.9746L12.55 12.9246L12.4375 13.3746C12.3625 13.6371 12.25 13.6371 12.2125 13.6371L10.9 13.3746L11.275 14.7246C11.275 14.8371 11.275 14.9496 11.125 15.0246L10.75 15.2496C10.75 15.2496 12.25 16.4496 12.7375 16.8621C12.85 16.9371 13.075 17.1621 13 17.4246L12.8125 17.9496L14.875 17.6496C14.9875 17.6496 15.2125 17.6496 15.175 17.9871L15.0625 20.1246H15.4375L15.325 17.9871C15.325 17.6496 15.55 17.6496 15.625 17.6496L17.6875 17.9496L17.5 17.4246C17.425 17.1621 17.65 16.9371 17.7625 16.8621C18.25 16.4496 19.75 15.2496 19.75 15.2496L19.3375 15.0996Z" fill="#D52B1E"/>
</g>
</g>
<defs>
<filter id="filter0_f_4446_27560" x="-0.75" y="-0.75" width="32" height="32" filterUnits="userSpaceOnUse" color-interpolation-filters="sRGB">
<feFlood flood-opacity="0" result="BackgroundImageFix"/>
<feBlend mode="normal" in="SourceGraphic" in2="BackgroundImageFix" result="shape"/>
<feGaussianBlur stdDeviation="2" result="effect1_foregroundBlur_4446_27560"/>
</filter>
<clipPath id="clip0_4446_27560">
<rect width="24" height="24" fill="white" transform="translate(3.25 3.25)"/>
</clipPath>
</defs>
</svg>
