<svg width="31" height="31" viewBox="0 0 31 31" fill="none" xmlns="http://www.w3.org/2000/svg">
<g filter="url(#filter0_f_4446_27590)">
<g clip-path="url(#clip0_4446_27590)">
<path d="M11.5002 25.8625V20.6875L7.6377 23.5375C8.72519 24.55 10.0377 25.3375 11.5002 25.8625ZM19.0002 25.8625C20.4627 25.3375 21.7752 24.55 22.8627 23.5375L19.0002 20.65V25.8625ZM4.6377 19C4.7502 19.375 4.9002 19.7125 5.0877 20.0875L6.5502 19H4.6377ZM23.9502 19L25.4127 20.0875C25.5627 19.75 25.7127 19.375 25.8627 19H23.9502Z" fill="#276BBC"/>
<path d="M12.0621 17.5H4.22461C4.33711 18.025 4.48711 18.5125 4.63711 19H6.54961L5.08711 20.0875C5.38711 20.725 5.72461 21.2875 6.13711 21.85L9.99961 19H11.4996V19.75L7.11211 22.975L7.63711 23.5L11.4996 20.6875V25.8625C11.9871 26.05 12.4746 26.1625 12.9996 26.275V17.5H12.0621ZM26.2746 17.5H17.4996V26.275C18.0246 26.1625 18.5121 26.0125 18.9996 25.8625V20.6875L22.8621 23.5C23.3871 23.0125 23.8371 22.4875 24.2871 21.925L20.2746 19H22.8246L25.1121 20.6875C25.2246 20.5 25.3371 20.275 25.4121 20.0875L23.9496 19H25.8621C26.0121 18.5125 26.1621 18.025 26.2746 17.5Z" fill="white"/>
<path d="M6.1377 21.85C6.4377 22.2625 6.7377 22.6375 7.0752 23.0125L11.5002 19.7875V19.0375H10.0002L6.1377 21.85ZM20.3127 19L24.3252 21.925C24.4752 21.7375 24.5877 21.55 24.7377 21.3625C24.7752 21.325 24.7752 21.2875 24.8127 21.2875C24.9252 21.1 25.0752 20.875 25.1877 20.6875L22.8252 19H20.3127Z" fill="#F7263A"/>
<path d="M19.0002 4.63672V9.81172L22.8627 6.96172C21.7752 5.94922 20.4627 5.16172 19.0002 4.63672ZM11.5002 4.63672C10.0377 5.16172 8.72519 5.94922 7.6377 6.96172L11.5002 9.84922V4.63672ZM25.8627 11.4992C25.7502 11.1242 25.6002 10.7867 25.4127 10.4117L23.9502 11.4992H25.8627ZM6.5502 11.4992L5.0877 10.4117C4.9377 10.7867 4.7877 11.1242 4.6377 11.4992H6.5502Z" fill="#276BBC"/>
<path d="M18.4371 12.9996H26.2371C26.1246 12.4746 25.9746 11.9871 25.8246 11.4996H23.9121L25.3746 10.4121C25.0746 9.77461 24.7371 9.21211 24.3246 8.64961L20.4996 11.4996H18.9996V10.7496L23.3871 7.52461L22.8621 6.99961L18.9996 9.81211V4.63711C18.5121 4.44961 18.0246 4.33711 17.4996 4.22461V12.9996H18.4371ZM4.22461 12.9996H12.9996V4.22461C12.4746 4.33711 11.9871 4.48711 11.4996 4.63711V9.81211L7.63711 6.99961C7.11211 7.48711 6.66211 8.01211 6.21211 8.57461L10.2246 11.4996H7.67461L5.38711 9.81211C5.27461 9.99961 5.16211 10.2246 5.08711 10.4121L6.54961 11.4996H4.63711C4.48711 11.9871 4.33711 12.4746 4.22461 12.9996Z" fill="white"/>
<path d="M24.3621 8.65078C24.0621 8.23828 23.7621 7.86328 23.4246 7.48828L18.9996 10.7133V11.4633H20.4996L24.3621 8.65078ZM10.1871 11.5008L6.21211 8.57578C6.06211 8.76328 5.94961 8.95078 5.79961 9.13828C5.76211 9.17578 5.76211 9.21328 5.72461 9.21328C5.61211 9.40078 5.46211 9.62578 5.34961 9.81328L7.63711 11.5008H10.1871Z" fill="#F7263A"/>
<path d="M26.275 13H17.5V4.225C16.7875 4.075 16.0375 4 15.25 4C14.0688 4 13.7125 4.075 13 4.225V13H4.225C4.075 13.7125 4 14.4625 4 15.25C4 16.4312 4.075 16.7875 4.225 17.5H13V26.275C13.7125 26.425 14.4625 26.5 15.25 26.5C16.4312 26.5 16.7875 26.425 17.5 26.275V17.5H26.275C26.425 16.7875 26.5 16.0375 26.5 15.25C26.5 14.0688 26.425 13.7125 26.275 13Z" fill="#F7263A"/>
</g>
</g>
<defs>
<filter id="filter0_f_4446_27590" x="-0.75" y="-0.75" width="32" height="32" filterUnits="userSpaceOnUse" color-interpolation-filters="sRGB">
<feFlood flood-opacity="0" result="BackgroundImageFix"/>
<feBlend mode="normal" in="SourceGraphic" in2="BackgroundImageFix" result="shape"/>
<feGaussianBlur stdDeviation="2" result="effect1_foregroundBlur_4446_27590"/>
</filter>
<clipPath id="clip0_4446_27590">
<rect width="24" height="24" fill="white" transform="translate(3.25 3.25)"/>
</clipPath>
</defs>
</svg>
