<svg width="24" height="24" viewBox="0 0 24 24" fill="none" xmlns="http://www.w3.org/2000/svg">
<rect x="23.5" y="0.5" width="23" height="23" rx="11.5" transform="rotate(90 23.5 0.5)" stroke="#9A0000"/>
<path d="M13.4697 8.52918C13.396 8.46051 13.3369 8.37771 13.2959 8.28571C13.2549 8.19372 13.2329 8.0944 13.2311 7.9937C13.2293 7.893 13.2478 7.79297 13.2856 7.69958C13.3233 7.60619 13.3794 7.52136 13.4506 7.45014C13.5219 7.37892 13.6067 7.32278 13.7001 7.28505C13.7935 7.24733 13.8935 7.22881 13.9942 7.23059C14.0949 7.23236 14.1942 7.2544 14.2862 7.2954C14.3782 7.33639 14.461 7.39549 14.5297 7.46918L18.5297 11.4692C18.6701 11.6098 18.749 11.8004 18.749 11.9992C18.749 12.1979 18.6701 12.3886 18.5297 12.5292L14.5297 16.5292C14.461 16.6029 14.3782 16.662 14.2862 16.703C14.1942 16.7439 14.0949 16.766 13.9942 16.7678C13.8935 16.7695 13.7935 16.751 13.7001 16.7133C13.6067 16.6756 13.5219 16.6194 13.4506 16.5482C13.3794 16.477 13.3233 16.3922 13.2856 16.2988C13.2478 16.2054 13.2293 16.1054 13.2311 16.0047C13.2329 15.904 13.2549 15.8046 13.2959 15.7126C13.3369 15.6206 13.396 15.5378 13.4697 15.4692L16.1897 12.7492H6.49968C6.30077 12.7492 6.11001 12.6702 5.96935 12.5295C5.8287 12.3889 5.74968 12.1981 5.74968 11.9992C5.74968 11.8003 5.8287 11.6095 5.96935 11.4688C6.11001 11.3282 6.30077 11.2492 6.49968 11.2492H16.1897L13.4697 8.52918Z" fill="#9A0000"/>
</svg>
