<svg width="20" height="20" viewBox="0 0 20 20" fill="none" xmlns="http://www.w3.org/2000/svg">
<path d="M6.5 10.4969C6.5 8.22523 6.5 7.0894 7.2025 6.38357C7.90583 5.67773 9.03667 5.67773 11.3 5.67773H13.7C15.9625 5.67773 17.0942 5.67773 17.7967 6.38357C18.5 7.0894 18.5 8.22523 18.5 10.4969V14.5136C18.5 16.7852 18.5 17.9211 17.7967 18.6269C17.0942 19.3327 15.9625 19.3327 13.7 19.3327H11.3C9.03667 19.3327 7.90583 19.3327 7.2025 18.6269C6.49917 17.9211 6.5 16.7852 6.5 14.5136V10.4969Z" fill="#9A0000"/>
<path opacity="0.5" d="M3.47667 2.64268C2.5 3.61852 2.5 5.19018 2.5 8.33268V9.99935C2.5 13.1419 2.5 14.7135 3.47667 15.6894C3.99083 16.2043 4.67083 16.4477 5.66 16.5627C5.5 15.8627 5.5 14.8994 5.5 13.5127V9.49685C5.5 7.22518 5.5 6.08935 6.2025 5.38352C6.90583 4.67768 8.03667 4.67768 10.3 4.67768H12.7C14.0767 4.67768 15.0333 4.67768 15.7317 4.83602C15.6167 3.84185 15.3733 3.15935 14.8567 2.64268C13.8808 1.66602 12.3092 1.66602 9.16667 1.66602C6.02417 1.66602 4.4525 1.66602 3.47667 2.64268Z" fill="#9A0000"/>
</svg>
