<svg width="14" height="15" viewBox="0 0 14 15" fill="none" xmlns="http://www.w3.org/2000/svg">
<path d="M4.28323 14.8426C4.23163 14.8925 4.17033 14.9321 4.10285 14.9591C4.03537 14.9861 3.96302 15 3.88996 15C3.81689 15 3.74455 14.9861 3.67706 14.9591C3.60958 14.9321 3.54828 14.8925 3.49668 14.8426L0.163844 11.6287C0.112115 11.5789 0.0710735 11.5198 0.0430708 11.4548C0.0150681 11.3897 0.000652313 11.3199 0.000652313 11.2495C0.000652313 11.179 0.0150681 11.1092 0.0430708 11.0442C0.0710735 10.9791 0.112115 10.92 0.163844 10.8702L3.49668 7.65627C3.54833 7.60647 3.60964 7.56696 3.67712 7.54001C3.74459 7.51306 3.81692 7.49918 3.88996 7.49918C3.96299 7.49918 4.03532 7.51306 4.10279 7.54001C4.17027 7.56696 4.23158 7.60647 4.28323 7.65627C4.33488 7.70607 4.37584 7.7652 4.40379 7.83027C4.43174 7.89534 4.44613 7.96508 4.44613 8.03552C4.44613 8.10595 4.43174 8.17569 4.40379 8.24076C4.37584 8.30583 4.33488 8.36496 4.28323 8.41476L1.89803 10.7138L12.7775 10.7138C12.9248 10.7138 13.0661 10.7702 13.1703 10.8707C13.2745 10.9711 13.333 11.1074 13.333 11.2495C13.333 11.3915 13.2745 11.5278 13.1703 11.6282C13.0661 11.7287 12.9248 11.7851 12.7775 11.7851L1.89803 11.7851L4.28323 14.0841C4.33496 14.1339 4.376 14.193 4.404 14.2581C4.43201 14.3232 4.44642 14.3929 4.44642 14.4634C4.44642 14.5338 4.43201 14.6036 4.404 14.6687C4.376 14.7338 4.33496 14.7929 4.28323 14.8426ZM9.05141 7.34345C8.99968 7.29369 8.95864 7.23458 8.93063 7.1695C8.90263 7.10443 8.88822 7.03466 8.88822 6.9642C8.88822 6.89375 8.90263 6.82398 8.93063 6.75891C8.95864 6.69383 8.99968 6.63472 9.05141 6.58496L11.4366 4.28592L0.557118 4.28592C0.409799 4.28592 0.268511 4.22949 0.16434 4.12903C0.0601683 4.02858 0.00164604 3.89233 0.00164604 3.75027C0.00164604 3.6082 0.0601683 3.47196 0.16434 3.3715C0.268511 3.27105 0.409799 3.21461 0.557118 3.21461L11.4366 3.21461L9.05141 0.915578C8.9471 0.814996 8.88851 0.678577 8.88851 0.536333C8.88851 0.394089 8.9471 0.25767 9.05141 0.157088C9.15571 0.0565062 9.29718 9.53674e-07 9.44468 9.53674e-07C9.59219 9.53674e-07 9.73365 0.0565062 9.83796 0.157088L13.1708 3.37102C13.2225 3.42078 13.2636 3.47989 13.2916 3.54497C13.3196 3.61005 13.334 3.67981 13.334 3.75027C13.334 3.82073 13.3196 3.89049 13.2916 3.95557C13.2636 4.02064 13.2225 4.07975 13.1708 4.12951L9.83796 7.34345C9.78636 7.39333 9.72506 7.43291 9.65758 7.45991C9.59009 7.48692 9.51775 7.50082 9.44468 7.50082C9.37162 7.50082 9.29927 7.48692 9.23179 7.45991C9.1643 7.43291 9.10301 7.39333 9.05141 7.34345Z" fill="black"/>
</svg>
