<svg width="100" height="100" viewBox="0 0 100 100" fill="none" xmlns="http://www.w3.org/2000/svg">
<path d="M50 84C31.2 84 16 68.8 16 50C16 31.2 31.2 16 50 16C68.8 16 84 31.2 84 50C84 68.8 68.8 84 50 84ZM50 20C33.4 20 20 33.4 20 50C20 66.6 33.4 80 50 80C66.6 80 80 66.6 80 50C80 33.4 66.6 20 50 20Z" fill="#999999"/>
<path d="M50.6002 69.3996L31.2002 49.9996L50.6002 30.5996L53.4002 33.3996L36.8002 49.9996L53.4002 66.5996L50.6002 69.3996Z" fill="#999999"/>
<path d="M34 48H68V52H34V48Z" fill="#999999"/>
</svg>
