<svg width="32" height="32" viewBox="0 0 32 32" fill="none" xmlns="http://www.w3.org/2000/svg">
<g clip-path="url(#clip0_4549_36618)">
<path d="M16 31.9987C24.8367 31.9987 32 24.8353 32 15.9987C32 7.164 24.8367 0 16 0C7.16333 0 0 7.16333 0 15.9993C0 24.8353 7.16333 31.9987 16 31.9987Z" fill="#9A0000"/>
<path d="M20.0719 7.34541C21.2868 7.34664 22.4515 7.82978 23.3105 8.68881C24.1696 9.54783 24.6527 10.7126 24.6539 11.9274C24.6525 13.1421 24.1693 14.3067 23.3103 15.1656C22.4513 16.0245 21.2867 16.5075 20.0719 16.5087C18.8572 16.5075 17.6926 16.0245 16.8336 15.1656C15.9746 14.3067 15.4913 13.1421 15.4899 11.9274C15.4912 10.7126 15.9743 9.54783 16.8333 8.68881C17.6924 7.82978 18.8571 7.34664 20.0719 7.34541ZM20.0719 6.69141C18.6833 6.69141 17.3515 7.24305 16.3695 8.22499C15.3876 9.20693 14.8359 10.5387 14.8359 11.9274C14.8359 13.3161 15.3876 14.6479 16.3695 15.6298C17.3515 16.6118 18.6833 17.1634 20.0719 17.1634C21.4606 17.1634 22.7924 16.6118 23.7743 15.6298C24.7563 14.6479 25.3079 13.3161 25.3079 11.9274C25.3079 10.5387 24.7563 9.20693 23.7743 8.22499C22.7924 7.24305 21.4606 6.69141 20.0719 6.69141Z" fill="#FBEC9A"/>
<path d="M20.0729 16.5084C18.8581 16.5073 17.6933 16.0243 16.8341 15.1654C15.975 14.3065 15.4916 13.1419 15.4902 11.927C15.4916 10.7123 15.9749 9.54775 16.8339 8.68887C17.6929 7.82999 18.8575 7.34694 20.0722 7.3457C21.287 7.34694 22.4516 7.82999 23.3106 8.68887C24.1696 9.54775 24.6528 10.7123 24.6542 11.927C24.6528 13.1418 24.1696 14.3063 23.3106 15.1652C22.4516 16.0241 21.287 16.5071 20.0722 16.5084" fill="#FACB1B"/>
<path d="M20.0729 7.3457C18.8581 7.34676 17.6933 7.82974 16.8341 8.68863C15.975 9.54753 15.4916 10.7122 15.4902 11.927C15.4901 12.546 15.6158 13.1585 15.8596 13.7274C16.1035 14.2963 16.4605 14.8097 16.9089 15.2364L23.3822 8.76304C22.9554 8.3148 22.4418 7.95802 21.8728 7.71437C21.3038 7.47073 20.6912 7.3453 20.0722 7.3457" fill="#FBE158"/>
<path d="M15.4902 11.9274C15.4915 10.7126 15.9746 9.54783 16.8336 8.68881C17.6927 7.82979 18.8574 7.34664 20.0722 7.34541C21.3689 7.34541 22.5409 7.88808 23.3749 8.75674L23.8396 8.29274C23.3519 7.78575 22.7668 7.38256 22.1194 7.10738C21.472 6.8322 20.7757 6.69071 20.0722 6.69141C19.0289 6.69174 18.0095 7.00376 17.1447 7.58744C16.2799 8.17112 15.6092 8.99985 15.2186 9.96732C14.828 10.9348 14.7354 11.9969 14.9526 13.0174C15.1698 14.0378 15.6869 14.9702 16.4376 15.6947L16.9016 15.2301C16.4553 14.8035 16.1002 14.291 15.8576 13.7233C15.615 13.1557 15.49 12.5447 15.4902 11.9274Z" fill="#FCF6C2"/>
<path d="M22.4249 13.852C22.0009 14.402 21.4749 14.7707 20.6649 14.7707C19.5029 14.7707 18.6856 14.0247 18.3869 12.9093H17.9636C17.8964 12.9104 17.8304 12.8912 17.7743 12.8543C17.7181 12.8174 17.6743 12.7645 17.6486 12.7024C17.6229 12.6403 17.6164 12.5719 17.63 12.5061C17.6436 12.4403 17.6767 12.3801 17.7249 12.3333C17.756 12.3016 17.7932 12.2764 17.8341 12.2592C17.8751 12.242 17.9191 12.2332 17.9636 12.2333H18.2702C18.2616 12.14 18.2616 12.0373 18.2616 11.9353C18.2616 11.8173 18.2616 11.692 18.2776 11.574H17.9636C17.8751 11.574 17.7902 11.5388 17.7276 11.4763C17.6651 11.4137 17.6299 11.3288 17.6299 11.2403C17.6299 11.1518 17.6651 11.067 17.7276 11.0044C17.7902 10.9418 17.8751 10.9067 17.9636 10.9067H18.4036C18.7096 9.84598 19.5182 9.08398 20.6342 9.08398C21.4669 9.08398 21.9696 9.41398 22.3782 9.88532C22.4394 9.95125 22.48 10.0336 22.4951 10.1222C22.5103 10.2109 22.4992 10.302 22.4634 10.3845C22.4275 10.4669 22.3684 10.5372 22.2932 10.5866C22.2181 10.636 22.1302 10.6624 22.0402 10.6627C21.9758 10.6642 21.9118 10.6509 21.8533 10.6237C21.7948 10.5965 21.7433 10.5562 21.7029 10.506C21.4042 10.1447 21.0976 9.94798 20.6109 9.94798C20.0456 9.94798 19.6209 10.3173 19.4009 10.9067H20.7996C20.888 10.9067 20.9728 10.9418 21.0353 11.0043C21.0978 11.0668 21.1329 11.1516 21.1329 11.24C21.1329 11.3284 21.0978 11.4132 21.0353 11.4757C20.9728 11.5382 20.888 11.5733 20.7996 11.5733H19.2529C19.2369 11.684 19.2369 11.802 19.2369 11.92C19.2369 12.0293 19.2369 12.1313 19.2449 12.2333H20.7996C20.9796 12.2333 21.1289 12.3907 21.1289 12.5713C21.1295 12.6151 21.1215 12.6587 21.1053 12.6994C21.089 12.7401 21.0649 12.7772 21.0344 12.8086C21.0038 12.84 20.9673 12.8651 20.927 12.8824C20.8867 12.8996 20.8434 12.9088 20.7996 12.9093H19.3856C19.6056 13.5373 20.0529 13.9067 20.6736 13.9067C21.1449 13.9067 21.4516 13.6787 21.7496 13.31C21.79 13.2595 21.8415 13.219 21.9002 13.1918C21.9588 13.1645 22.0229 13.1511 22.0876 13.1527C22.1689 13.152 22.2488 13.1744 22.3179 13.2174C22.387 13.2604 22.4425 13.3222 22.4778 13.3954C22.5132 13.4687 22.527 13.5506 22.5176 13.6314C22.5082 13.7122 22.4761 13.7887 22.4249 13.852Z" fill="#8E6134"/>
<path d="M11.9271 15.4893C13.1418 15.4906 14.3064 15.9736 15.1654 16.8325C16.0244 17.6914 16.5077 18.8559 16.5091 20.0707C16.5091 22.5973 14.4537 24.6527 11.9277 24.6527C9.40174 24.6527 7.34574 22.5973 7.34574 20.0707C7.34715 18.8559 7.83037 17.6914 8.68938 16.8325C9.54838 15.9736 10.713 15.4906 11.9277 15.4893M11.9277 14.8347C10.539 14.8347 9.2071 15.3863 8.22509 16.3683C7.24309 17.3503 6.69141 18.6822 6.69141 20.071C6.69141 21.4597 7.24309 22.7916 8.22509 23.7736C9.2071 24.7556 10.539 25.3073 11.9277 25.3073C13.3166 25.3073 14.6486 24.7556 15.6306 23.7735C16.6127 22.7915 17.1644 21.4595 17.1644 20.0707C17.1644 18.6818 16.6127 17.3498 15.6306 16.3678C14.6486 15.3857 13.3166 14.8347 11.9277 14.8347Z" fill="#FBEC9A"/>
<path d="M11.927 24.6536C10.7124 24.6522 9.54797 24.169 8.6891 23.3102C7.83024 22.4513 7.34711 21.2868 7.3457 20.0722C7.3457 17.5456 9.40104 15.4902 11.9277 15.4902C14.4544 15.4902 16.5097 17.5456 16.5097 20.0722C16.5083 21.287 16.0251 22.4515 15.1661 23.3104C14.3071 24.1693 13.1424 24.6523 11.9277 24.6536" fill="#FACB1B"/>
<path d="M11.927 15.4902C10.7123 15.4916 9.54775 15.9749 8.68887 16.8339C7.82999 17.6929 7.34694 18.8575 7.3457 20.0722C7.34556 20.691 7.47118 21.3034 7.71494 21.8722C7.9587 22.4409 8.31551 22.9542 8.7637 23.3809L15.237 16.9076C14.8102 16.4594 14.2968 16.1027 13.7279 15.859C13.159 15.6154 12.5466 15.4899 11.9277 15.4902" fill="#FBE158"/>
<path d="M7.34441 20.0719C7.34582 18.8572 7.82904 17.6927 8.68805 16.8338C9.54705 15.9749 10.7117 15.4918 11.9264 15.4906C13.2231 15.4906 14.3951 16.0333 15.2291 16.9013L15.6937 16.4373C15.2061 15.9303 14.621 15.5271 13.9736 15.2519C13.3262 14.9767 12.6299 14.8352 11.9264 14.8359C10.883 14.8361 9.86349 15.1481 8.9986 15.7317C8.1337 16.3153 7.46291 17.144 7.07225 18.1115C6.6816 19.079 6.58891 20.1412 6.80607 21.1617C7.02324 22.1823 7.54035 23.1147 8.29108 23.8393L8.75575 23.3746C8.30949 22.9481 7.95434 22.4355 7.71177 21.8678C7.46919 21.3002 7.34422 20.6893 7.34441 20.0719Z" fill="#FCF6C2"/>
<path d="M12.0424 16.8054C12.231 16.8054 12.3804 16.954 12.3804 17.1427V17.316C12.8137 17.3653 13.23 17.5129 13.5977 17.7474C13.7237 17.818 13.833 17.936 13.833 18.1247C13.8329 18.182 13.8213 18.2388 13.799 18.2917C13.7768 18.3445 13.7442 18.3924 13.7033 18.4326C13.6624 18.4728 13.6139 18.5045 13.5606 18.5258C13.5073 18.5471 13.4504 18.5576 13.393 18.5567C13.3097 18.5546 13.2284 18.5302 13.1577 18.486C12.9075 18.3298 12.6348 18.2131 12.349 18.14V19.648C13.5424 19.9467 14.0537 20.426 14.0537 21.266C14.0537 22.13 13.3784 22.7034 12.3804 22.798V22.9614C12.3806 23.0058 12.3721 23.0498 12.3552 23.0909C12.3383 23.132 12.3134 23.1693 12.2819 23.2007C12.2505 23.2321 12.2131 23.2569 12.172 23.2737C12.1308 23.2906 12.0868 23.299 12.0424 23.2987C11.9519 23.2996 11.8647 23.2646 11.8 23.2014C11.7353 23.1381 11.6983 23.0518 11.697 22.9614V22.7814C11.1167 22.7189 10.5623 22.5082 10.087 22.1694C10.0217 22.1306 9.96775 22.0753 9.93054 22.0091C9.89333 21.9428 9.87419 21.868 9.87503 21.792C9.87503 21.5487 10.063 21.36 10.307 21.36C10.4004 21.3598 10.4913 21.3903 10.5657 21.4467C10.935 21.7134 11.2964 21.894 11.7284 21.9734V20.4254C10.5817 20.1274 10.0477 19.6954 10.0477 18.8074C10.0477 17.9674 10.715 17.3854 11.697 17.3074V17.142C11.697 16.954 11.8544 16.8054 12.0424 16.8054ZM11.7284 19.4827V18.0934C11.2257 18.14 10.9744 18.4067 10.9744 18.7534C10.9744 19.0827 11.1237 19.286 11.7284 19.4827ZM12.3484 20.5754V22.0047C12.8517 21.95 13.1264 21.698 13.1264 21.3214C13.1264 20.976 12.9524 20.764 12.3484 20.5754Z" fill="#8E6134"/>
<path d="M7.85541 12.7985H6.69141L8.43674 15.1251L10.1821 12.7985H9.01874V10.4718C9.01874 9.6958 9.40674 9.3078 10.1827 9.3078H12.5094V10.4711L14.8367 8.7258L12.5101 6.98047V8.14447H10.1821C8.63096 8.14447 7.85541 8.92002 7.85541 10.4711V12.7985ZM23.8554 19.4891H25.0187L23.2734 17.1625L21.5281 19.4891H22.6914V21.8158C22.6914 22.5918 22.3036 22.9798 21.5281 22.9798H19.2007V21.8165L16.8741 23.5618L19.2007 25.3071V24.1431H21.5274C23.0794 24.1431 23.8554 23.3676 23.8554 21.8165V19.4891Z" fill="white"/>
</g>
<defs>
<clipPath id="clip0_4549_36618">
<rect width="32" height="32" fill="white"/>
</clipPath>
</defs>
</svg>
