<svg width="103" height="77" viewBox="0 0 103 77" fill="none" xmlns="http://www.w3.org/2000/svg">
<path d="M20.5025 119.497C9.05102 108.046 1.92445 92.9781 0.33707 76.8612C-1.25031 60.7443 2.79974 44.5756 11.7971 31.1101C20.7945 17.6446 34.1825 7.71531 49.6801 3.01418C65.1776 -1.68694 81.8257 -0.869078 96.7878 5.32842C111.75 11.5259 124.1 22.7196 131.734 37.0022C139.369 51.2848 141.814 67.7726 138.655 83.6563C135.496 99.54 126.926 113.837 114.408 124.111C101.889 134.385 86.1949 140 70 140L70 114.327C80.2552 114.327 90.1932 110.771 98.1206 104.265C106.048 97.7591 111.474 88.7058 113.475 78.6477C115.476 68.5895 113.927 58.1488 109.093 49.1045C104.258 40.0603 96.4376 32.972 86.9631 29.0475C77.4885 25.123 66.9463 24.6051 57.1326 27.582C47.319 30.559 38.8412 36.8465 33.1437 45.3734C27.4462 53.9003 24.8816 64.139 25.8868 74.3448C26.892 84.5506 31.4048 94.0922 38.6563 101.344L20.5025 119.497Z" fill="#6C0505"/>
</svg>
