<svg width="21" height="21" viewBox="0 0 21 21" fill="none" xmlns="http://www.w3.org/2000/svg">
<path d="M5.25002 8.25V15.25M9.25002 11.25V15.25M9.25002 11.25C9.25002 10.856 9.32762 10.4659 9.47838 10.1019C9.62915 9.73797 9.85013 9.40726 10.1287 9.12868C10.4073 8.8501 10.738 8.62913 11.102 8.47836C11.4659 8.3276 11.8561 8.25 12.25 8.25C12.644 8.25 13.0341 8.3276 13.3981 8.47836C13.762 8.62913 14.0928 8.8501 14.3713 9.12868C14.6499 9.40726 14.8709 9.73797 15.0217 10.1019C15.1724 10.4659 15.25 10.856 15.25 11.25V15.25M9.25002 11.25V8.25M5.25802 5.25H5.24902" stroke="white" stroke-width="1.5" stroke-linecap="round" stroke-linejoin="round"/>
<path d="M0.75 10.25C0.75 5.772 0.75 3.532 2.141 2.141C3.532 0.75 5.771 0.75 10.25 0.75C14.728 0.75 16.968 0.75 18.359 2.141C19.75 3.532 19.75 5.771 19.75 10.25C19.75 14.728 19.75 16.968 18.359 18.359C16.968 19.75 14.729 19.75 10.25 19.75C5.772 19.75 3.532 19.75 2.141 18.359C0.75 16.968 0.75 14.729 0.75 10.25Z" stroke="white" stroke-width="1.5" stroke-linecap="round" stroke-linejoin="round"/>
</svg>
